<?xml version="1.0" standalone="no"?>
<!DOCTYPE svg PUBLIC "-//W3C//DTD SVG 20010904//EN"
 "http://www.w3.org/TR/2001/REC-SVG-20010904/DTD/svg10.dtd">
<svg version="1.0" xmlns="http://www.w3.org/2000/svg"
 width="344.000000pt" height="337.000000pt" viewBox="0 0 344.000000 337.000000"
 preserveAspectRatio="xMidYMid meet">

<g transform="translate(0.000000,337.000000) scale(0.100000,-0.100000)"
fill="#FFF" stroke="none">
<path d="M1590 3090 c-123 -21 -172 -46 -204 -105 -18 -31 -30 -41 -59 -47
-99 -20 -207 -111 -242 -201 -15 -40 -17 -68 -12 -190 5 -133 26 -245 72 -383
6 -19 3 -21 -37 -20 -41 1 -43 0 -56 -39 -32 -96 40 -260 129 -293 23 -9 27
-20 46 -116 20 -99 24 -109 72 -170 130 -163 278 -263 404 -273 134 -11 231
38 383 192 101 103 127 148 144 245 17 102 19 108 40 115 71 22 131 123 138
231 6 94 -6 118 -57 111 l-38 -5 25 92 c34 125 42 355 17 477 -23 116 -64 197
-127 254 -112 100 -230 136 -447 134 -80 -1 -166 -5 -191 -9z"/>
<path d="M891 1174 c-118 -36 -233 -75 -255 -86 -51 -26 -137 -108 -161 -153
l-19 -34 24 -27 c47 -50 205 -178 295 -237 497 -326 1152 -371 1694 -116 121
57 232 123 315 187 75 58 198 168 209 187 10 19 -38 91 -95 140 -60 52 -112
73 -355 144 l-213 62 -301 -244 -301 -245 -298 244 c-164 134 -304 244 -312
244 -7 -1 -109 -30 -227 -66z"/>
</g>
</svg>
